<svg width="11" height="15" viewBox="0 0 11 15" fill="none" xmlns="http://www.w3.org/2000/svg">
<path fill-rule="evenodd" clip-rule="evenodd" d="M6.33333 0C6.33333 0 6.82667 1.76667 6.82667 3.2C6.82667 4.57333 5.92667 5.68667 4.55333 5.68667C3.17333 5.68667 2.13333 4.57333 2.13333 3.2L2.15333 2.96C0.806667 4.56 0 6.63333 0 8.88667C0 11.8333 2.38667 14.22 5.33333 14.22C8.28 14.22 10.6667 11.8333 10.6667 8.88667C10.6667 5.29333 8.94 2.08667 6.33333 0ZM5.04666 8.32659C4.13999 8.51326 3.59999 9.09992 3.59999 9.93326C3.59999 10.8266 4.33999 11.5466 5.25999 11.5466C6.62666 11.5466 7.73333 10.4399 7.73333 9.07325C7.73333 8.35992 7.63333 7.65992 7.42666 6.99325C6.89999 7.70659 5.95999 8.13992 5.04666 8.32659ZM1.33333 8.88663C1.33333 11.0933 3.12667 12.8866 5.33333 12.8866C7.54 12.8866 9.33333 11.0933 9.33333 8.88663C9.33333 7.17997 8.89333 5.5333 8.07333 4.06663C7.72 5.79997 6.32667 7.01997 4.55333 7.01997C3.51333 7.01997 2.58 6.60663 1.90667 5.9333C1.53333 6.85997 1.33333 7.86663 1.33333 8.88663Z" fill="#6E33D4"/>
</svg>
