<svg width="726" height="800" viewBox="0 0 726 800" fill="none" xmlns="http://www.w3.org/2000/svg">
<path fill-rule="evenodd" clip-rule="evenodd" d="M595.003 313.079C636.743 336.102 613.777 403.071 627.443 448.729C640.227 491.44 677.502 526.996 672.281 571.263C666.677 618.77 642.601 670.966 598.927 690.486C555.775 709.772 510.192 666.854 462.959 664.818C420.499 662.987 375.575 701.676 339.437 679.299C303.47 657.029 311.667 602.685 297.979 562.665C284.368 522.868 255.904 487.618 259.55 445.724C263.659 398.501 276.012 340.276 319.059 320.429C363.143 300.105 408.44 355.995 456.976 354.702C506.226 353.39 551.855 289.279 595.003 313.079Z" fill="#42CFD0" fill-opacity="0.04"/>
<path opacity="0.8" fill-rule="evenodd" clip-rule="evenodd" d="M688.411 -300.773C773.023 -270.534 874.028 -279.592 937.232 -215.703C1003.94 -148.275 1025.2 -49.0896 1031.1 45.6256C1037.21 143.833 1033.15 250.982 971.027 327.287C910.369 401.789 797.623 393.007 712.328 437.156C604.795 492.815 527.904 635.172 407.99 618.713C289.994 602.517 221.787 470.738 171.157 362.876C127.323 269.492 136.205 164.558 146.619 61.8893C155.834 -28.9604 180.43 -114.589 227.523 -192.822C277.741 -276.248 329.352 -376.894 424.106 -399.088C517.943 -421.067 597.674 -333.201 688.411 -300.773Z" fill="#F8F3FF"/>
</svg>
