<svg width="12" height="11" viewBox="0 0 12 11" fill="none" xmlns="http://www.w3.org/2000/svg">
<path fill-rule="evenodd" clip-rule="evenodd" d="M2.33197 2.99049L1.10363 1.76216L1.74988 1.11133L9.87613 9.24216L9.22988 9.88841L7.66238 8.32091C7.04822 8.56383 6.37905 8.69674 5.68238 8.69674C3.39072 8.69674 1.43363 7.27133 0.640717 5.25924C0.993633 4.35633 1.58488 3.57716 2.33197 2.99049ZM5.68239 2.73839C7.41948 2.73839 8.96864 3.71464 9.72489 5.25922C9.45448 5.81839 9.07406 6.29964 8.62031 6.68922L9.26656 7.33547C9.90364 6.77172 10.4078 6.06589 10.7241 5.25922C9.93114 3.24714 7.97406 1.82172 5.68239 1.82172C5.10031 1.82172 4.54114 1.91339 4.01406 2.08297L4.77031 2.83922C5.06822 2.77964 5.37073 2.73839 5.68239 2.73839ZM5.19194 3.26089L6.14069 4.20964C6.40194 4.32422 6.61277 4.53505 6.72735 4.7963L7.6761 5.74505C7.71277 5.58922 7.74027 5.42422 7.74027 5.25463C7.74485 4.11797 6.81902 3.19672 5.68235 3.19672C5.51277 3.19672 5.35235 3.21964 5.19194 3.26089ZM4.54113 5.1997L5.73738 6.39595C5.71905 6.40054 5.70072 6.40512 5.68238 6.40512C5.04988 6.40512 4.53655 5.89179 4.53655 5.25929C4.53655 5.24783 4.5377 5.23866 4.53884 5.2295C4.53999 5.22033 4.54113 5.21116 4.54113 5.1997ZM3.78485 4.4434L2.98277 3.64132C2.42819 4.06298 1.96069 4.60382 1.63985 5.25923C2.3961 6.80382 3.94527 7.78007 5.68235 7.78007C6.11777 7.78007 6.53944 7.7159 6.94277 7.6059L6.4936 7.15673C6.2461 7.26215 5.9711 7.32173 5.68235 7.32173C4.54569 7.32173 3.61985 6.3959 3.61985 5.25923C3.61985 4.97048 3.67944 4.69548 3.78485 4.4434Z" fill="#2D2D2D"/>
</svg>
