<svg id="Layer_1" data-name="Layer 1" xmlns="http://www.w3.org/2000/svg" viewBox="0 0 64 64"><defs><style>.cls-1{fill:#939393;}.cls-2,.cls-3{fill:none;stroke:#fff;stroke-miterlimit:10;stroke-width:3px;}.cls-3{stroke-linecap:round;}</style></defs><title>sneakqik</title><rect class="cls-1" x="4" y="3.94" width="56.23" height="56.23" rx="6.54"/><path class="cls-2" d="M48,46.52l-2.84-3.07a1.48,1.48,0,0,1-.1-1.9,15.61,15.61,0,0,0,3.16-9.42A16.06,16.06,0,1,0,32.12,48a16.07,16.07,0,0,0,6.62-1.41,1.39,1.39,0,0,1,1.57.34l1.4,1.5a1.81,1.81,0,0,0,1.59.54l4.05-.65A1.06,1.06,0,0,0,48,46.52Z"/><polyline class="cls-3" points="31.66 25.43 31.66 32.83 36.64 37.81"/></svg>